<svg width="176" height="39" viewBox="0 0 176 39" fill="none" xmlns="http://www.w3.org/2000/svg">
<path d="M1.12008 9.9065C0.825506 9.9057 0.542419 9.98435 0.332583 10.1253C0.122748 10.2662 0.00319546 10.458 8.68731e-06 10.6588V28.9164C-0.000572386 29.0168 0.0280019 29.1163 0.0840851 29.2091C0.140168 29.3019 0.22265 29.3863 0.326774 29.4572C0.430899 29.5282 0.554605 29.5844 0.690761 29.6227C0.826917 29.6609 0.972829 29.6804 1.12008 29.68C1.26733 29.6804 1.41324 29.6609 1.5494 29.6227C1.68556 29.5844 1.80926 29.5282 1.91339 29.4572C2.01751 29.3863 2.09999 29.3019 2.15608 29.2091C2.21216 29.1163 2.24073 29.0168 2.24015 28.9164V10.6588C2.23697 10.458 2.11741 10.2662 1.90758 10.1253C1.69774 9.98435 1.41466 9.9057 1.12008 9.9065Z" fill="#F9F9F9"/>
<path d="M7.80771 5.33643C7.51315 5.3386 7.2318 5.4201 7.02505 5.56314C6.8183 5.70619 6.70293 5.89916 6.70411 6.09997V33.4752C6.70293 33.676 6.8183 33.869 7.02505 34.012C7.2318 34.1551 7.51315 34.2366 7.80771 34.2387C7.95496 34.2391 8.10087 34.2197 8.23703 34.1814C8.37319 34.1432 8.49689 34.087 8.60102 34.016C8.70514 33.945 8.78762 33.8607 8.84371 33.7679C8.89979 33.675 8.92836 33.5756 8.92778 33.4752V6.09997C8.92836 5.99959 8.89979 5.90013 8.84371 5.80731C8.78762 5.71449 8.70514 5.63016 8.60102 5.55918C8.49689 5.4882 8.37319 5.43198 8.23703 5.39375C8.10087 5.35551 7.95496 5.33604 7.80771 5.33643Z" fill="#F9F9F9"/>
<path d="M14.5114 2.29346C14.3642 2.29307 14.2183 2.31255 14.0821 2.35078C13.946 2.38901 13.8223 2.44524 13.7181 2.51622C13.614 2.5872 13.5315 2.67153 13.4754 2.76434C13.4194 2.85716 13.3908 2.95662 13.3914 3.057V36.5181C13.3908 36.6185 13.4194 36.718 13.4754 36.8108C13.5315 36.9036 13.614 36.9879 13.7181 37.0589C13.8223 37.1299 13.946 37.1861 14.0821 37.2243C14.2183 37.2626 14.3642 37.282 14.5114 37.2816C14.806 37.2795 15.0873 37.198 15.2941 37.0549C15.5008 36.9119 15.6162 36.7189 15.615 36.5181V3.057C15.6162 2.8562 15.5008 2.66322 15.2941 2.52018C15.0873 2.37713 14.806 2.29564 14.5114 2.29346Z" fill="#F9F9F9"/>
<path d="M21.1989 6.86353C20.9044 6.86273 20.6213 6.94138 20.4114 7.08232C20.2016 7.22325 20.0821 7.41505 20.0789 7.61584V31.9594C20.0783 32.0597 20.1069 32.1592 20.1629 32.252C20.219 32.3448 20.3015 32.4292 20.4056 32.5001C20.5098 32.5711 20.6335 32.6274 20.7696 32.6656C20.9058 32.7038 21.0517 32.7233 21.1989 32.7229C21.3462 32.7233 21.4921 32.7038 21.6283 32.6656C21.7644 32.6274 21.8881 32.5711 21.9922 32.5001C22.0964 32.4292 22.1789 32.3448 22.2349 32.252C22.291 32.1592 22.3196 32.0597 22.319 31.9594V7.61584C22.3158 7.41505 22.1963 7.22325 21.9864 7.08232C21.7766 6.94138 21.4935 6.86273 21.1989 6.86353Z" fill="#F9F9F9"/>
<path d="M34.5905 11.4224C34.4433 11.422 34.2974 11.4415 34.1612 11.4797C34.0251 11.5179 33.9014 11.5741 33.7972 11.6451C33.6931 11.7161 33.6106 11.8004 33.5545 11.8932C33.4985 11.9861 33.4699 12.0855 33.4705 12.1859V27.4006C33.4737 27.6014 33.5932 27.7932 33.803 27.9341C34.0129 28.0751 34.296 28.1537 34.5905 28.1529C34.8851 28.1537 35.1682 28.0751 35.378 27.9341C35.5879 27.7932 35.7074 27.6014 35.7106 27.4006V12.1859C35.7112 12.0855 35.6826 11.9861 35.6265 11.8932C35.5705 11.8004 35.488 11.7161 35.3838 11.6451C35.2797 11.5741 35.156 11.5179 35.0199 11.4797C34.8837 11.4415 34.7378 11.422 34.5905 11.4224Z" fill="#F9F9F9"/>
<path d="M41.2779 8.3794C40.9834 8.38157 40.702 8.46307 40.4953 8.60612C40.2885 8.74916 40.1731 8.94213 40.1743 9.14294V30.4323C40.1731 30.6331 40.2885 30.8261 40.4953 30.9691C40.702 31.1122 40.9834 31.1937 41.2779 31.1958C41.4252 31.1962 41.5711 31.1767 41.7072 31.1385C41.8434 31.1003 41.9671 31.0441 42.0712 30.9731C42.1754 30.9021 42.2578 30.8178 42.3139 30.7249C42.37 30.6321 42.3986 30.5327 42.398 30.4323V9.14294C42.3986 9.04256 42.37 8.9431 42.3139 8.85028C42.2578 8.75747 42.1754 8.67313 42.0712 8.60215C41.9671 8.53117 41.8434 8.47495 41.7072 8.43672C41.5711 8.39849 41.4252 8.379 41.2779 8.3794Z" fill="#F9F9F9"/>
<path d="M54.6694 0.777594C54.5221 0.777198 54.3762 0.796676 54.2401 0.834907C54.1039 0.873138 53.9802 0.929366 53.8761 1.00035C53.772 1.07133 53.6895 1.15566 53.6334 1.24847C53.5773 1.34129 53.5487 1.44075 53.5493 1.54113V38.0452C53.5487 38.1456 53.5773 38.245 53.6334 38.3378C53.6895 38.4307 53.772 38.515 53.8761 38.586C53.9802 38.6569 54.1039 38.7132 54.2401 38.7514C54.3762 38.7896 54.5221 38.8091 54.6694 38.8087C54.8166 38.8091 54.9626 38.7896 55.0987 38.7514C55.2349 38.7132 55.3586 38.6569 55.4627 38.586C55.5668 38.515 55.6493 38.4307 55.7054 38.3378C55.7615 38.245 55.7901 38.1456 55.7895 38.0452V1.54113C55.79 1.44075 55.7615 1.34129 55.7054 1.24847C55.6493 1.15566 55.5668 1.07133 55.4627 1.00035C55.3586 0.929366 55.2349 0.873138 55.0987 0.834907C54.9626 0.796676 54.8166 0.777198 54.6694 0.777594Z" fill="#F9F9F9"/>
<path d="M61.357 5.33643C61.0625 5.3386 60.7811 5.4201 60.5744 5.56314C60.3676 5.70619 60.2522 5.89916 60.2534 6.09997V33.4752C60.2522 33.676 60.3676 33.869 60.5744 34.012C60.7811 34.1551 61.0625 34.2366 61.357 34.2387C61.5043 34.2391 61.6502 34.2197 61.7863 34.1814C61.9225 34.1432 62.0462 34.087 62.1503 34.016C62.2545 33.945 62.3369 33.8607 62.393 33.7679C62.4491 33.675 62.4777 33.5756 62.4771 33.4752V6.09997C62.4777 5.99959 62.4491 5.90013 62.393 5.80731C62.3369 5.71449 62.2545 5.63016 62.1503 5.55918C62.0462 5.4882 61.9225 5.43198 61.7863 5.39375C61.6502 5.35551 61.5043 5.33604 61.357 5.33643Z" fill="#F9F9F9"/>
<path d="M68.0608 9.9065C67.7662 9.9057 67.4831 9.98435 67.2733 10.1253C67.0634 10.2662 66.9439 10.458 66.9407 10.6588V30.4323C66.9401 30.5327 66.9687 30.6322 67.0248 30.725C67.0808 30.8178 67.1633 30.9021 67.2674 30.9731C67.3716 31.0441 67.4953 31.1003 67.6314 31.1385C67.7676 31.1768 67.9135 31.1962 68.0608 31.1958C68.208 31.1962 68.3539 31.1768 68.4901 31.1385C68.6262 31.1003 68.7499 31.0441 68.8541 30.9731C68.9582 30.9021 69.0407 30.8178 69.0967 30.725C69.1528 30.6322 69.1814 30.5327 69.1808 30.4323V10.6588C69.1776 10.458 69.0581 10.2662 68.8482 10.1253C68.6384 9.98435 68.3553 9.9057 68.0608 9.9065Z" fill="#F9F9F9"/>
<path d="M81.4524 5.33643C81.3051 5.33604 81.1592 5.35551 81.023 5.39375C80.8869 5.43198 80.7632 5.4882 80.659 5.55919C80.5549 5.63017 80.4724 5.71449 80.4164 5.80731C80.3603 5.90013 80.3317 5.99959 80.3323 6.09997V33.4752C80.3317 33.5756 80.3603 33.675 80.4164 33.7679C80.4724 33.8607 80.5549 33.945 80.659 34.016C80.7632 34.087 80.8869 34.1432 81.023 34.1814C81.1592 34.2197 81.3051 34.2391 81.4524 34.2387C81.7469 34.2366 82.0283 34.1551 82.235 34.012C82.4418 33.869 82.5571 33.676 82.556 33.4752V6.09997C82.5571 5.89916 82.4418 5.70619 82.235 5.56314C82.0283 5.4201 81.7469 5.3386 81.4524 5.33643Z" fill="#F9F9F9"/>
<path d="M88.1399 9.9065C87.8453 9.9057 87.5622 9.98435 87.3524 10.1253C87.1425 10.2662 87.023 10.458 87.0198 10.6588V28.9164C87.0192 29.0168 87.0478 29.1163 87.1039 29.2091C87.1599 29.3019 87.2424 29.3863 87.3466 29.4572C87.4507 29.5282 87.5744 29.5844 87.7105 29.6227C87.8467 29.6609 87.9926 29.6804 88.1399 29.68C88.2871 29.6804 88.433 29.6609 88.5692 29.6227C88.7053 29.5844 88.829 29.5282 88.9332 29.4572C89.0373 29.3863 89.1198 29.3019 89.1759 29.2091C89.2319 29.1163 89.2605 29.0168 89.2599 28.9164V10.6588C89.2567 10.458 89.1372 10.2662 88.9274 10.1253C88.7175 9.98435 88.4344 9.9057 88.1399 9.9065Z" fill="#F9F9F9"/>
<path d="M27.8866 11.4224C27.592 11.4245 27.3107 11.506 27.1039 11.6491C26.8972 11.7921 26.7818 11.9851 26.783 12.1859V27.4006C26.7861 27.5995 26.9034 27.7896 27.1097 27.9302C27.316 28.0708 27.5948 28.1508 27.8866 28.1529C28.1811 28.1537 28.4642 28.0751 28.6741 27.9341C28.8839 27.7932 29.0035 27.6014 29.0066 27.4006V12.1859C29.0072 12.0855 28.9786 11.9861 28.9226 11.8932C28.8665 11.8004 28.784 11.7161 28.6799 11.6451C28.5758 11.5741 28.452 11.5179 28.3159 11.4797C28.1797 11.4415 28.0338 11.422 27.8866 11.4224Z" fill="#F9F9F9"/>
<path d="M47.9819 3.82056C47.8346 3.82017 47.6887 3.83965 47.5526 3.87788C47.4164 3.91611 47.2927 3.97234 47.1886 4.04332C47.0845 4.1143 47.002 4.19863 46.9459 4.29144C46.8898 4.38426 46.8612 4.48372 46.8618 4.5841V35.0023C46.8612 35.1026 46.8898 35.2021 46.9459 35.2949C47.002 35.3877 47.0845 35.4721 47.1886 35.5431C47.2927 35.614 47.4164 35.6703 47.5526 35.7085C47.6887 35.7467 47.8346 35.7662 47.9819 35.7658C48.2765 35.7636 48.5578 35.6821 48.7646 35.5391C48.9713 35.3961 49.0867 35.2031 49.0855 35.0023V4.5841C49.0867 4.3833 48.9713 4.19032 48.7646 4.04728C48.5578 3.90423 48.2765 3.82273 47.9819 3.82056Z" fill="#F9F9F9"/>
<path d="M74.7484 6.86353C74.4567 6.86567 74.1778 6.94562 73.9715 7.08625C73.7652 7.22687 73.6479 7.41698 73.6448 7.61584V33.4752C73.6436 33.676 73.759 33.869 73.9657 34.012C74.1725 34.1551 74.4538 34.2366 74.7484 34.2388C74.8956 34.2392 75.0415 34.2197 75.1777 34.1814C75.3139 34.1432 75.4376 34.087 75.5417 34.016C75.6458 33.945 75.7283 33.8607 75.7844 33.7679C75.8405 33.6751 75.869 33.5756 75.8684 33.4752V7.61584C75.8653 7.41505 75.7457 7.22326 75.5359 7.08232C75.326 6.94138 75.043 6.86273 74.7484 6.86353Z" fill="#F9F9F9"/>
<path d="M87.8603 9.9065C87.5657 9.9057 87.2827 9.98435 87.0728 10.1253C86.863 10.2662 86.7434 10.458 86.7402 10.6588V28.9164C86.7397 29.0168 86.7682 29.1163 86.8243 29.2091C86.8804 29.3019 86.9629 29.3863 87.067 29.4572C87.1711 29.5282 87.2948 29.5844 87.431 29.6227C87.5672 29.6609 87.7131 29.6804 87.8603 29.68C88.0076 29.6804 88.1535 29.6609 88.2896 29.6227C88.4258 29.5844 88.5495 29.5282 88.6536 29.4572C88.7577 29.3863 88.8402 29.3019 88.8963 29.2091C88.9524 29.1163 88.981 29.0168 88.9804 28.9164V10.6588C88.9772 10.458 88.8576 10.2662 88.6478 10.1253C88.438 9.98435 88.1549 9.9057 87.8603 9.9065Z" fill="#F9F9F9"/>
<path d="M94.5477 5.33643C94.2531 5.3386 93.9718 5.4201 93.765 5.56314C93.5583 5.70619 93.4429 5.89916 93.4441 6.09997V33.4752C93.4429 33.676 93.5583 33.869 93.765 34.012C93.9718 34.1551 94.2531 34.2366 94.5477 34.2387C94.695 34.2391 94.8409 34.2197 94.977 34.1814C95.1132 34.1432 95.2369 34.087 95.341 34.016C95.4451 33.945 95.5276 33.8607 95.5837 33.7679C95.6398 33.675 95.6684 33.5756 95.6678 33.4752V6.09997C95.6684 5.99959 95.6398 5.90013 95.5837 5.80731C95.5276 5.71449 95.4451 5.63016 95.341 5.55918C95.2369 5.4882 95.1132 5.43198 94.977 5.39375C94.8409 5.35551 94.695 5.33604 94.5477 5.33643Z" fill="#F9F9F9"/>
<path d="M101.252 2.29346C101.104 2.29307 100.959 2.31255 100.822 2.35078C100.686 2.38901 100.562 2.44524 100.458 2.51622C100.354 2.5872 100.272 2.67153 100.216 2.76434C100.16 2.85716 100.131 2.95662 100.132 3.057V36.5181C100.131 36.6185 100.16 36.718 100.216 36.8108C100.272 36.9036 100.354 36.9879 100.458 37.0589C100.562 37.1299 100.686 37.1861 100.822 37.2243C100.959 37.2626 101.104 37.282 101.252 37.2816C101.546 37.2795 101.828 37.198 102.034 37.0549C102.241 36.9119 102.356 36.7189 102.355 36.5181V3.057C102.356 2.8562 102.241 2.66322 102.034 2.52018C101.828 2.37713 101.546 2.29564 101.252 2.29346Z" fill="#F9F9F9"/>
<path d="M107.939 6.86353C107.645 6.86273 107.362 6.94138 107.152 7.08232C106.942 7.22325 106.822 7.41505 106.819 7.61584V31.9594C106.819 32.0597 106.847 32.1592 106.903 32.252C106.959 32.3448 107.042 32.4292 107.146 32.5001C107.25 32.5711 107.374 32.6274 107.51 32.6656C107.646 32.7038 107.792 32.7233 107.939 32.7229C108.086 32.7233 108.232 32.7038 108.368 32.6656C108.505 32.6274 108.628 32.5711 108.732 32.5001C108.837 32.4292 108.919 32.3448 108.975 32.252C109.031 32.1592 109.06 32.0597 109.059 31.9594V7.61584C109.056 7.41505 108.937 7.22325 108.727 7.08232C108.517 6.94138 108.234 6.86273 107.939 6.86353Z" fill="#F9F9F9"/>
<path d="M121.331 11.4224C121.183 11.422 121.037 11.4415 120.901 11.4797C120.765 11.5179 120.641 11.5741 120.537 11.6451C120.433 11.7161 120.351 11.8004 120.295 11.8932C120.238 11.9861 120.21 12.0855 120.21 12.1859V27.4006C120.214 27.6014 120.333 27.7932 120.543 27.9341C120.753 28.0751 121.036 28.1537 121.331 28.1529C121.625 28.1537 121.908 28.0751 122.118 27.9341C122.328 27.7932 122.447 27.6014 122.451 27.4006V12.1859C122.451 12.0855 122.423 11.9861 122.367 11.8932C122.31 11.8004 122.228 11.7161 122.124 11.6451C122.02 11.5741 121.896 11.5179 121.76 11.4797C121.624 11.4415 121.478 11.422 121.331 11.4224Z" fill="#F9F9F9"/>
<path d="M128.018 8.3794C127.724 8.38157 127.442 8.46307 127.236 8.60612C127.029 8.74916 126.913 8.94213 126.915 9.14294V30.4323C126.913 30.6331 127.029 30.8261 127.236 30.9691C127.442 31.1122 127.724 31.1937 128.018 31.1958C128.165 31.1962 128.311 31.1767 128.447 31.1385C128.584 31.1003 128.707 31.0441 128.811 30.9731C128.916 30.9021 128.998 30.8178 129.054 30.7249C129.11 30.6321 129.139 30.5327 129.138 30.4323V9.14294C129.139 9.04256 129.11 8.9431 129.054 8.85028C128.998 8.75747 128.916 8.67313 128.811 8.60215C128.707 8.53117 128.584 8.47495 128.447 8.43672C128.311 8.39849 128.165 8.379 128.018 8.3794Z" fill="#F9F9F9"/>
<path d="M141.41 0.777594C141.262 0.777198 141.116 0.796676 140.98 0.834907C140.844 0.873138 140.72 0.929366 140.616 1.00035C140.512 1.07133 140.43 1.15566 140.374 1.24847C140.318 1.34129 140.289 1.44075 140.29 1.54113V38.0452C140.289 38.1456 140.318 38.245 140.374 38.3378C140.43 38.4307 140.512 38.515 140.616 38.586C140.72 38.6569 140.844 38.7132 140.98 38.7514C141.116 38.7896 141.262 38.8091 141.41 38.8087C141.557 38.8091 141.703 38.7896 141.839 38.7514C141.975 38.7132 142.099 38.6569 142.203 38.586C142.307 38.515 142.39 38.4307 142.446 38.3378C142.502 38.245 142.53 38.1456 142.53 38.0452V1.54113C142.53 1.44075 142.502 1.34129 142.446 1.24847C142.39 1.15566 142.307 1.07133 142.203 1.00035C142.099 0.929366 141.975 0.873138 141.839 0.834907C141.703 0.796676 141.557 0.777198 141.41 0.777594Z" fill="#F9F9F9"/>
<path d="M148.097 5.33643C147.802 5.3386 147.521 5.4201 147.314 5.56314C147.108 5.70619 146.992 5.89916 146.993 6.09997V33.4752C146.992 33.676 147.108 33.869 147.314 34.012C147.521 34.1551 147.802 34.2366 148.097 34.2387C148.244 34.2391 148.39 34.2197 148.526 34.1814C148.662 34.1432 148.786 34.087 148.89 34.016C148.994 33.945 149.077 33.8607 149.133 33.7679C149.189 33.675 149.218 33.5756 149.217 33.4752V6.09997C149.218 5.99959 149.189 5.90013 149.133 5.80731C149.077 5.71449 148.994 5.63016 148.89 5.55918C148.786 5.4882 148.662 5.43198 148.526 5.39375C148.39 5.35551 148.244 5.33604 148.097 5.33643Z" fill="#F9F9F9"/>
<path d="M154.801 9.9065C154.506 9.9057 154.223 9.98435 154.013 10.1253C153.804 10.2662 153.684 10.458 153.681 10.6588V30.4323C153.68 30.5327 153.709 30.6322 153.765 30.725C153.821 30.8178 153.904 30.9021 154.008 30.9731C154.112 31.0441 154.236 31.1003 154.372 31.1385C154.508 31.1768 154.654 31.1962 154.801 31.1958C154.948 31.1962 155.094 31.1768 155.23 31.1385C155.366 31.1003 155.49 31.0441 155.594 30.9731C155.698 30.9021 155.781 30.8178 155.837 30.725C155.893 30.6322 155.922 30.5327 155.921 30.4323V10.6588C155.918 10.458 155.798 10.2662 155.588 10.1253C155.379 9.98435 155.096 9.9057 154.801 9.9065Z" fill="#F9F9F9"/>
<path d="M168.192 5.33643C168.045 5.33604 167.899 5.35551 167.763 5.39375C167.627 5.43198 167.503 5.4882 167.399 5.55919C167.295 5.63017 167.212 5.71449 167.156 5.80731C167.1 5.90013 167.072 5.99959 167.072 6.09997V33.4752C167.072 33.5756 167.1 33.675 167.156 33.7679C167.212 33.8607 167.295 33.945 167.399 34.016C167.503 34.087 167.627 34.1432 167.763 34.1814C167.899 34.2197 168.045 34.2391 168.192 34.2387C168.487 34.2366 168.768 34.1551 168.975 34.012C169.182 33.869 169.297 33.676 169.296 33.4752V6.09997C169.297 5.89916 169.182 5.70619 168.975 5.56314C168.768 5.4201 168.487 5.3386 168.192 5.33643Z" fill="#F9F9F9"/>
<path d="M174.88 9.9065C174.585 9.9057 174.302 9.98435 174.092 10.1253C173.883 10.2662 173.763 10.458 173.76 10.6588V28.9164C173.759 29.0168 173.788 29.1163 173.844 29.2091C173.9 29.3019 173.982 29.3863 174.087 29.4572C174.191 29.5282 174.314 29.5844 174.451 29.6227C174.587 29.6609 174.733 29.6804 174.88 29.68C175.027 29.6804 175.173 29.6609 175.309 29.6227C175.445 29.5844 175.569 29.5282 175.673 29.4572C175.777 29.3863 175.86 29.3019 175.916 29.2091C175.972 29.1163 176 29.0168 176 28.9164V10.6588C175.997 10.458 175.877 10.2662 175.667 10.1253C175.458 9.98435 175.174 9.9057 174.88 9.9065Z" fill="#F9F9F9"/>
<path d="M114.627 11.4224C114.332 11.4245 114.051 11.506 113.844 11.6491C113.637 11.7921 113.522 11.9851 113.523 12.1859V27.4006C113.526 27.5995 113.644 27.7896 113.85 27.9302C114.056 28.0708 114.335 28.1508 114.627 28.1529C114.921 28.1537 115.204 28.0751 115.414 27.9341C115.624 27.7932 115.744 27.6014 115.747 27.4006V12.1859C115.747 12.0855 115.719 11.9861 115.663 11.8932C115.607 11.8004 115.524 11.7161 115.42 11.6451C115.316 11.5741 115.192 11.5179 115.056 11.4797C114.92 11.4415 114.774 11.422 114.627 11.4224Z" fill="#F9F9F9"/>
<path d="M134.722 3.82056C134.575 3.82017 134.429 3.83965 134.293 3.87788C134.157 3.91611 134.033 3.97234 133.929 4.04332C133.825 4.1143 133.742 4.19863 133.686 4.29144C133.63 4.38426 133.601 4.48372 133.602 4.5841V35.0023C133.601 35.1026 133.63 35.2021 133.686 35.2949C133.742 35.3877 133.825 35.4721 133.929 35.5431C134.033 35.614 134.157 35.6703 134.293 35.7085C134.429 35.7467 134.575 35.7662 134.722 35.7658C135.017 35.7636 135.298 35.6821 135.505 35.5391C135.712 35.3961 135.827 35.2031 135.826 35.0023V4.5841C135.827 4.3833 135.712 4.19032 135.505 4.04728C135.298 3.90423 135.017 3.82273 134.722 3.82056Z" fill="#F9F9F9"/>
<path d="M161.489 6.86353C161.197 6.86567 160.918 6.94562 160.712 7.08625C160.505 7.22687 160.388 7.41698 160.385 7.61584V33.4752C160.384 33.676 160.499 33.869 160.706 34.012C160.913 34.1551 161.194 34.2366 161.489 34.2388C161.636 34.2392 161.782 34.2197 161.918 34.1814C162.054 34.1432 162.178 34.087 162.282 34.016C162.386 33.945 162.469 33.8607 162.525 33.7679C162.581 33.6751 162.609 33.5756 162.609 33.4752V7.61584C162.605 7.41505 162.486 7.22326 162.276 7.08232C162.066 6.94138 161.783 6.86273 161.489 6.86353Z" fill="#F9F9F9"/>
</svg>
